<svg version="1.2" xmlns="http://www.w3.org/2000/svg" viewBox="0 0 221 76" width="221" height="76">
	<title>Vector Smart Object-ai</title>
	<style>
		.s0 { fill: #454691 } 
	</style>
	<g id="Objects">
		<g id="&lt;Group&gt;">
			<path id="&lt;Path&gt;" class="s0" d="m175.9 71.3c-1.4-0.3-2-0.8-2.4-1.1-0.4-0.3-0.6-0.5-0.7-0.5-0.2-0.1-0.2 0.1-0.4-0.1 0.5 0.7 1.2 1.3 1.9 1.6 0.7 0.3 1.3 0.5 1.8 0.5 0.8 0 1-0.1 1-0.2-0.1 0-0.4-0.1-0.7-0.1-0.3-0.1-0.5-0.1-0.5-0.1z"/>
			<path id="&lt;Path&gt;" class="s0" d="m167.3 66.4l0.7-0.5-5.8 2.7z"/>
			<path id="&lt;Path&gt;" class="s0" d="m189.4 58.1c-0.6 0.4-1.4 0.6-2.2 0.7h-0.3-0.1q0 0 0 0h-0.1c-0.1 0-0.2 0-0.3 0.1q-0.2 0.1-0.4 0.2-0.3 0.1-0.6 0.2c-1.5 0.7-3.2 1.6-5 2.6-3.6 1.9-7.6 4.1-10.9 5.6l-1.1 0.4-2.7 1.9c3.9-2 8.4-4.3 12.6-6.5 2-1.1 4.1-2.2 5.9-3.1q0.7-0.4 1.4-0.7 0.3-0.2 0.6-0.3c0.1-0.1 0.2-0.2 0.4-0.2h0.2l0.3-0.1q0.4 0 0.8-0.1 0.8-0.2 1.5-0.7z"/>
			<path id="&lt;Path&gt;" class="s0" d="m170.7 57.6c1.3-0.3-4.3 1.9 4.7-1.8-0.4 0.1-0.6 0.2-0.9 0.3-0.8 0.3-1.9 0.7-3.8 1.5z"/>
			<path id="&lt;Path&gt;" class="s0" d="m174.5 56.1c4.1-1.6-2.7 0.8 0 0z"/>
			<path id="&lt;Path&gt;" class="s0" d="m156.2 63.2l5.3-2.2c-1.2 0.2-5.9 1.9-4.2 1.2-5.4 2.1-4.2 1.8-1.1 1z"/>
			<path id="&lt;Path&gt;" class="s0" d="m151.4 65.5l2.7-1.1c-0.5 0.1-1.2 0.3-2.7 1.1z"/>
			<path id="&lt;Path&gt;" class="s0" d="m159.8 62l-5.7 2.4c0.8-0.2 1 0 2.6-1.1-0.4 0.4 0.7-0.2 3.1-1.3z"/>
			<path id="&lt;Path&gt;" class="s0" d="m163.2 60.9c3-0.8 6.7-2.2 1.6 0 5-1.9 7-3 6.6-2.9-0.4 0-3.3 1.1-8.2 2.9z"/>
			<path id="&lt;Path&gt;" class="s0" d="m190.5 55.4c0 0-0.1 0.3-0.3 0.7-0.2 0.5-0.7 1-1.3 1.4-1.1 0.6-2.3 0.6-2.2 0.6 0 0-0.2 0-0.5 0.1-0.3 0.2-0.6 0.4-1 0.6-0.8 0.5-1.6 0.9-1.6 0.9 0.4-0.2 1.1-0.5 1.8-0.9 0.5-0.2 0.7-0.4 1.1-0.4 0.3-0.1 0.9-0.1 1.4-0.3 1-0.2 1.9-1 2.3-1.7 0.3-0.7 0.3-1.1 0.3-1z"/>
			<path id="&lt;Path&gt;" class="s0" d="m149.4 70.3c0.2-0.3-1.9 0.4-2.3 0.4 0 0-0.9 0.5-1.8 0.9-0.9 0.5-1.8 1-1.8 1 1.9-0.9 5.6-2.4 5.9-2.3z"/>
			<path id="&lt;Path&gt;" class="s0" d="m147.1 70.7c0 0 1.4-0.7 2.7-1.4 1.4-0.7 2.8-1.4 2.8-1.4-5.1 2.2-5.9 2.8-5.5 2.8z"/>
			<path id="&lt;Path&gt;" class="s0" d="m150.8 66.6l9.3-4.1-11.2 4.8z"/>
			<path id="&lt;Path&gt;" class="s0" d="m171.2 61.1l-3.1 1.7 5.5-2.9z"/>
			<path id="&lt;Path&gt;" class="s0" d="m185.6 55c-2.3 1.3 3.5-0.8 1 0.4 4-1.7 7.2-3.2 10.2-4.5-3.2 1.3-6.6 2.6-11.2 4.1z"/>
			<path id="&lt;Path&gt;" class="s0" d="m201.9 48.6c-1.6 0.7-3.3 1.5-5.1 2.3 1.7-0.7 3.4-1.4 5.1-2.3z"/>
			<path id="&lt;Path&gt;" class="s0" d="m162.3 63.9c0.5-0.1 1.4-0.2 4.7-1.5l-2.4 0.6c-0.7 0.3-1.5 0.6-2.3 0.9z"/>
			<path id="&lt;Path&gt;" class="s0" d="m164.5 63h0.1c2.4-1 4.1-1.7 4.9-2-0.7 0.2-2.2 0.8-5 2z"/>
			<path id="&lt;Path&gt;" class="s0" d="m161.7 64.1c0.3 0 0.4-0.1 0.6-0.2-0.2 0.1-0.4 0.1-0.6 0.2z"/>
			<path id="&lt;Path&gt;" class="s0" d="m138 74.6c2.9-2 9.6-5.6 2.9-2.6-2.1 1.5 1.6-0.3-2.9 2.6z"/>
			<path id="&lt;Path&gt;" class="s0" d="m158.7 64.8l-6 2.5c0.1 0 1.3-0.3-0.3 0.5 0 0 1.6-0.7 3.1-1.5 1.6-0.7 3.2-1.5 3.2-1.5z"/>
			<path id="&lt;Path&gt;" class="s0" d="m161.7 63.4l-3 1.4 2.3-0.9z"/>
			<path id="&lt;Path&gt;" class="s0" d="m191.2 52.2c2.6-1.2 5.4-2.3 8.8-3.5-3.6 1.2-7.3 2.5-10.7 3.9-0.4 0.3-1.8 1.1 1.9-0.4z"/>
			<path id="&lt;Path&gt;" class="s0" d="m178.2 57.3c0.2-0.1 0.4-0.2 0.6-0.2-0.4 0.1-0.7 0.2-0.6 0.2z"/>
			<path id="&lt;Path&gt;" class="s0" d="m178.4 49.4q0.3-0.1 0.6-0.1 0-0.1 0.1-0.1z"/>
			<path id="&lt;Path&gt;" class="s0" d="m188.7 52.7c-2.7 1-4.2 1.7-5.6 2.4q2.9-1.2 6.2-2.5c0.2-0.2 0.2-0.2-0.6 0.1z"/>
			<path id="&lt;Path&gt;" class="s0" d="m200.5 42c1.4-0.2 3-0.5 4.7-0.7l1.5 4.9q-0.2 0-0.4 0.1 0.2 0 0.4-0.1l-1.5-4.9c-1.6 0-4.2 0.5-4.7 0.7z"/>
			<path id="&lt;Path&gt;" class="s0" d="m179.7 56.8q-0.2 0.1-0.4 0.2c0.9-0.3 0.8-0.3 0.4-0.2z"/>
			<path id="&lt;Path&gt;" class="s0" d="m179.7 56.8c1.3-0.6 2.3-1.1 3.4-1.7-1.6 0.7-3.1 1.4-4.3 2 0.3-0.1 0.6-0.2 0.9-0.3z"/>
			<path id="&lt;Path&gt;" class="s0" d="m169.1 55c0.4-0.5 7.4-3 13.7-4.4 6-2.1 1.7-2.2-3.8-1.3-0.2 0.2-0.1 0.4-6.3 2.4 2.2-0.4 14-3.6 8.8-1.7-8.2 2.7-6.8 1.9-10.9 2.9 3.6-0.5-10.3 3.8-8.3 4 0 0 0.5-0.2 1.1-0.4 0.7-0.2 1.6-0.5 2.5-0.8 1.8-0.6 3.6-1.2 3.6-1.2 0.2 0-2.4 1-0.4 0.5z"/>
			<path id="&lt;Path&gt;" class="s0" d="m190.8 45.8l2.5-1c-1.5 0.5-2.7 0.9-4.1 1.2-1.3 0.4-2.8 0.7-4.8 1.1-4.2 1.5-5.1 1.9-5.3 2.1 0 0 3.1-0.9 6.3-1.9q1.2-0.3 2.3-0.6 1.1-0.4 2-0.7c1.2-0.3 1.9-0.6 1.9-0.6z"/>
			<path id="&lt;Path&gt;" class="s0" d="m206.6 45.9q0 0 0 0l-1.3-4.3c-1.1 0.3-3.3 0.9-4.6 1.5-1.3 0.5-1.9 0.8 0.1 0.5 2.2-0.6 3.7-0.9 4.6-1.1l0.8 2.5c-2.4 1.2-2 1.3-5.2 2.7 3-1.2 4.3-1.8 4.7-2 0.4-0.1-0.2 0.2-0.8 0.5-0.6 0.3-1.3 0.7-1.3 0.8-0.1 0 0.6-0.1 2.8-1.1-2.3 1.2-4.4 2-6.4 2.8 2.1-0.8 4.3-1.5 6.3-2.4q-0.2 0.1-0.3 0.1l-0.1 0.1h0.1c-0.6 0.1-0.8 0.2-0.2 0 0.1-0.1 0.2-0.1 0.3-0.2 0-0.1 0.2-0.2 0.5-0.4q0 0 0 0l-1.3-4.4c-3.3 0.5-1.4 0.2 0-0.1l1.3 4.7q-0.3 0.1-0.5 0.2c-0.1 0.1-0.1 0.1-0.1 0.2q0 0 0-0.1l0.7-0.3-1.5-4.8c-4.2 0.7-8.1 2.2-11.9 3.5 1.3-0.4 2.8-0.8 4.6-1.4 1.9-0.6 4.2-1.3 7.4-1.9l1.3 4.4q0 0 0 0z"/>
			<path id="&lt;Path&gt;" class="s0" d="m146.6 68.2c0.3-0.2 0.3-0.1 0.4-0.1 0.7-0.4 1-0.6-0.4 0.1z"/>
			<path id="&lt;Path&gt;" class="s0" d="m151.4 66.3c-0.8 0.4-1.4 0.8-4.2 2.1-2.4 0.9 0-0.2-0.2-0.3-1.6 0.9-5.6 3-0.4 0.7l0.8-0.4c4.7-2 11-4 10.2-3.6-1.6 0.2-2.9 0.5-6.2 1.5z"/>
			<path id="&lt;Path&gt;" class="s0" d="m179.1 55.6c0 0 2.5-1 4.9-2.1 2.4-1 4.9-2 4.9-2l-5.2 1.6 0.4 0.1c-5.7 2.2-4.3 2-5 2.4z"/>
			<path id="&lt;Path&gt;" class="s0" d="m177.2 49.5l1.2-0.8-5.7 2.3z"/>
			<path id="&lt;Path&gt;" class="s0" d="m164 53.5l0.4-0.5c0 0-0.9 0.3-1.8 0.6-0.8 0.3-1.6 0.7-1.6 0.7 0 0 0.7-0.2 1.5-0.4 0.7-0.2 1.5-0.4 1.5-0.4z"/>
			<path id="&lt;Path&gt;" class="s0" d="m45.1 58.9l-2.8 1.3c1.4-0.6 2.2-1 2.8-1.3z"/>
			<path id="&lt;Path&gt;" class="s0" d="m65.9 50.2l0.4-0.4c-0.9 0.5-1.3 0.8-0.4 0.4z"/>
			<path id="&lt;Path&gt;" class="s0" d="m165.3 41.7c4.3-1.6 9.1-3.1 8.4-3.3l-1.4 0.2c-2.8 1.4-5.1 2.3-7 3.1z"/>
			<path id="&lt;Path&gt;" class="s0" d="m56.5 56q-0.6 0.2-1.3 0.5-1.4 0.9-2.6 1.7c1.2-0.7 2.5-1.4 3.9-2.2z"/>
			<path id="&lt;Path&gt;" class="s0" d="m58.6 53l5.5-2.3c-1.3 0.4-3.1 1.2-5.5 2.3z"/>
			<path id="&lt;Path&gt;" class="s0" d="m157.7 16l3.2-1.9c-5.2 2.3-2.8 1.5-3.2 1.9z"/>
			<path id="&lt;Path&gt;" class="s0" d="m203.7 40.3c1.3-0.3 2.5-0.6 3.6-0.8l-1.6-4.8c-1.9 0.7-3.7 1.2-5.4 1.6 2.2-0.4 4.1-0.9 5.5-1.4l1.4 4.3c-1.7 0.4-2.9 0.7-3.5 1.1z"/>
			<path id="&lt;Path&gt;" class="s0" d="m51.5 51.2c-1.8 0.8-2.5 1.2-2.4 1.3 1.8-0.8 2.8-1.3 2.4-1.3z"/>
			<path id="&lt;Path&gt;" class="s0" d="m189.3 38.8q1.1-0.2 2.1-0.4c2.8-0.8 5.7-1.4 8.9-2.1-1.6 0.3-3.4 0.6-5.3 1-1.9 0.4-3.8 0.9-5.7 1.5z"/>
			<path id="&lt;Path&gt;" class="s0" d="m64.3 23.8c0.3-0.2 0.7-0.3 0.9-0.5 0.1-0.1-0.3 0.1-0.9 0.5z"/>
			<path id="&lt;Path&gt;" class="s0" d="m35 22.9c1.2-0.4 3.2-1.1 5.1-1.7-0.9 0.3-2.4 0.8-5.1 1.7z"/>
			<path id="&lt;Path&gt;" class="s0" d="m124.2 71.4c-2.6 1.1-0.4 0.2 0 0z"/>
			<path id="&lt;Path&gt;" class="s0" d="m125.3 67.8c-0.6 0.2-1 0.4-1.1 0.6q0.3-0.3 1.1-0.6z"/>
			<path id="&lt;Path&gt;" class="s0" d="m161.9 49.1q-0.1 0-0.2 0.1c0.8-0.2 0.7-0.2 0.2-0.1z"/>
			<path id="&lt;Path&gt;" class="s0" d="m120.3 72.9q1.4-0.6 3.3-1.3c-0.5 0.2-1.6 0.5-3.3 1.3z"/>
			<path id="&lt;Path&gt;" class="s0" d="m70.9 73.8q-1 0.4-1.8 0.9l-2.2-4.9 0.4-0.1c0.2-0.2 0.1-0.2-0.4 0l2.2 5.1c0.3-0.2 0.8-0.5 1.8-1z"/>
			<path id="&lt;Path&gt;" class="s0" d="m128.1 69.8c-1.6 0.7-3.1 1.3-4.5 1.8q0.8-0.3 0.6-0.2c0.8-0.3 1.9-0.8 3.9-1.6z"/>
			<path id="&lt;Path&gt;" class="s0" d="m68.7 30.6q0.2-0.2 0.6-0.3c2.5-1.5 1.4-0.9-0.6 0.3z"/>
			<path id="&lt;Path&gt;" class="s0" d="m199.7 28.5c0.1-0.1 0.2-0.1 0.3-0.1-0.1 0-0.3 0.1-0.4 0.1z"/>
			<path id="&lt;Path&gt;" class="s0" d="m189.7 31.7c4.2-1.7 6.6-2.4 9.9-3.2l-3.7-0.2z"/>
			<path id="&lt;Compound Path&gt;" fill-rule="evenodd" class="s0" d="m96.3 48.3l-6.6 3.4c7.4-5.1 13.1-8.1 6.8-5.1 0 0.4-1.6 1.5-3.9 3-1.2 0.7-2.6 1.6-4 2.4q-1.1 0.7-2.2 1.4c-0.8 0.4-1.5 0.9-2.3 1.3-3 1.7-6.3 3.3-8.7 5-0.9 0.6-1.7 1.2-2.4 1.7 1.5-0.2 3.3-0.7 5.2-1.9q0.3-0.2 0.6-0.4 0.2-0.1 0.5-0.2 0.7-0.4 1.6-0.8 1.1-0.6 2.4-1.3c-1.3 0.7-2.9 1.4-4.1 1.9q-0.2 0.1-0.3 0.2c-0.1 0-0.1 0-0.2 0-0.1 0-0.1 0.1-0.2 0.1q-0.5 0.3-0.6 0.3-0.2 0.1 0.1-0.2 0.1-0.1 0.4-0.3 0.1-0.1 0.3-0.2c3.6-1.7 8.5-3.9 10.8-4.8 12.5-6.4-2.1 0.5 3.1-2.4 4.5-1.6 6.1-3.3 11.5-6.2l0.3 0.4c14.5-6.7 3.3-2.8 16.5-8.7l-5.2 3.2 6.7-3.4-1.2 1.2c7.2-3.9 9.6-4.9 17-8-1.9 0.4 0.5-1.3 7-4.1 4.2-1.5-1.3 1 5.1-1.8q1.6-0.8 3.5-1.9l1.5-0.1c1.4-0.8 5.6-2.6 11.3-4.7 2.2-0.8 4.7-1.7 7.2-2.6q0.1-0.1 0.3-0.1 0 0-0.1 0c3.8-1.4 7.8-2.8 11.7-4.4l-1.2-3.7c-2 0.5-3.8 1.2-5.6 1.9 0.2-0.1 0.4-0.3 1.6-0.8-2.1 0.8-4.3 1.8-6.5 2.7-2.2 0.9-4.4 1.8-6.7 2.6-4.2 1.6-8.5 3.2-12.5 4.7q-0.3 0.2-0.7 0.4c-8.3 3.6-15.6 6.9-24.6 12 4.7-2-5.4 3.3-0.5 1.3-2.5 1.2-5.8 2.6-7.9 3.4-0.7 0.5-2.1 1.4-4.5 2.7-9.2 5.2-3.8 1.4-7.1 3-4.5 2.8-12 7.9-20.7 12.4 2.7-1.8 4.9-3 7.5-4.5zm-23.3 13.1q-0.2 0.1-0.4 0.1l-2-4.7c2.9-1.9 4.5-2.5 6.7-3.6 1.1-0.5 2.4-1.2 4.1-2.2 1.7-1 3.8-2.4 6.6-4.3-2.8 1.6-1.8 0.6-1.7 0.4 0.1-0.2-0.1-0.2-1.1 0.4-0.5 0.3-1.2 0.7-2.2 1.3-1 0.6-2.2 1.4-3.9 2.3 1.6-1 3.1-1.9 4.6-2.8q2.4-1.4 4.8-2.8c2.9-1.7 5.8-3.4 8.7-5.4q-0.5 0.3-1 0.6l0.5-0.3c-15 7.1-12.5 5.3-26.1 12l1.5-0.4c-3.9 1.9-8 4-12.7 5.7l-1.5-3.8c3.6-1.8 7.2-4 11-6.3 3.9-2.2 7.7-4.4 11.5-6.5 7.7-4.3 15.4-8.4 22.5-12.2l-6.1 3c1.3-0.7 4-2.2 7.1-3.9 3.5-1.9 7.5-3.9 10.4-5.2-1.1 0.6-3 1.6-4.1 2.2 0.3 0.1 2.7-0.7 7.1-2.9l1.5-1.2 1.9-0.7c6.7-3.4-2.2 0.6 4.5-2.9 2.1-0.5 9.3-4.2 16.8-7.9q-2.2 0.6-4.4 1.2c-6.9 2-13.7 4.2-23.1 6.5l0.8-0.3c-7 1.6-10.8 2.7-13.7 4-1.5 0.2 3.4-1.3 0.7-0.8-6 2.3-12 3.9-17.5 5.5-5.5 1.5-10.4 2.9-13.9 4.7 0.6-1.3-15.1 4-8.9 0.7l-4.8 2.1c1.3-1.3 15.1-6.1 17.7-7.7 0 0 4-1.2 7.9-2.4 4-1.1 8-2.2 8-2.2-0.6 0 1.9-1.2-0.7-0.5 3.9-1.2 7.3-2.2 2.1-1q8.6-2.2 17.3-4.3 4.3-1 8.7-2.1 4.2-1 8.5-2.3c5.7-1.7 11.3-3.5 17.1-5.1 5.5-1.6 11.2-2.1 15.8-4.3-0.1 0-0.4 0.1-0.6 0.2-0.4 0.1-0.8 0.2-0.8 0.2 0.8-0.5 1.5-0.9 1.9-1.2l0.3 0.4q0.1 0 0.2-0.1l1.7 2.9q-0.1 0-0.2 0.1l0.2 0.4q-1.8 0.9-3.5 1.5c-2.5 1.2-5 2.2-7.4 3.2q-1.4 0.6-2.6 1.2l-2.7 1.3q-2.6 1.3-5.2 2.6c-7 3.5-13.9 7-20.9 10.4-2.2 1.2-0.8 0.7 0.1 0.4-6.5 2.7-5.9 3.4-9.3 5.2 0 0-2.4 1-4.8 2-2.4 1-4.8 2-4.8 2-3.6 2.2-0.6 0.9-0.8 1.2q-1.1 0.7-2.2 1.3c3.2-1.4 5.4-2.2 4.5-1.2 7.3-3.3 5.8-3.3 3.6-2.4 8.5-3.9 15.3-7.1 22.1-10.6 1.9-0.7 8.4-3.8 16.3-6.9 3.9-1.6 8.2-3.3 12.3-4.6 4.2-1.4 8.1-2.6 11.3-3.9l0.2 0.8q0.1-0.1 0.1-0.1l0.5 1.2q-0.1 0-0.1 0.1l0.3 0.7c-3.4 1-6.1 1.8-7.7 2.3 3.5-0.9 2.4-0.5 0 0.5 2.4-0.8 5.8-2 7.8-2.8l-1-2.8c-2 0.6-2.9 0.6-0.4-0.5l0.2-0.1 1.5 3.9c-3.7 1-7.2 2.2-11.5 3.8q-0.8 0.4-1.7 0.8c0 0 1.2-0.3 2.3-0.7 1.2-0.3 2.4-0.7 2.4-0.7 0 0-2.8 1.2-5.6 2.4-2.7 1.3-5.5 2.6-5.5 2.6-1.1 0.6-1.8 0.9-2.2 1.1-0.5 0.2-0.6 0.3-0.7 0.3-1.8 0.8 0.3-0.6-4.5 1.6-7.5 3.6-7.7 4-11.7 6.3l1.2-0.5-5.1 2.5c-3.8 1.8 13-6.9 0.6-1.2-0.1 0.2-6.9 4.4-10.3 5.7 6.2-3.1 5.2-3.1 2.9-2.1 0 0-2.2 1.1-4.3 2.2-2.2 1.1-4.3 2.3-4.3 2.3l3.1-0.9c-4.3 2.3-8.7 4.7-13 7.3q1.8-0.9 3.7-1.8c-0.1 0.4 4.7-1.9 9.2-4.1 1.8-0.8 3.5-1.6 4.9-2.3 0.4-0.2 1-0.5 1.8-1l6.1-2.4q1-0.6 2-1.1c-0.9 0.3-2.4 1-4.6 2 0 0 2.6-1.3 5.2-2.7 2.6-1.3 5.2-2.6 5.2-2.6 2.6-2.2 9.8-5.3 18.4-8.7q0.6-0.2 1.1-0.4c1.5-0.7 2.3-1.1 2.7-1.4 4.6-1.9 9.5-4 14.1-5.9 4.6-1.9 8.9-3.7 12.5-5l0.4 1.2q0.1-0.1 0.3-0.1l1.1 3.7q-0.1 0.1-0.2 0.1l0.4 1.2q-0.3 0.1-0.5 0.1c0.8-0.3-0.2-0.1-1.5 0.2-1.4 0.3-3 0.7-3.5 0.8 0 0-0.8 0.4-1.9 0.9-1.2 0.5-2.8 1.2-4.4 1.9-1.6 0.7-3.3 1.4-4.4 1.9-1.2 0.5-2 0.9-2 0.9 1.4-0.6 2.4-1.1 3.2-1.5 0.8-0.3 1.3-0.6 1.7-0.9 0.7-0.5 0.8-0.7 1.2-1.1q-0.1 0-0.2 0.1c-3.9 1.6-5.7 2.5-8.3 3.6 1.6-0.8 3.2-1.6 1-0.9 0 0-3.3 1.5-6.6 3-3.3 1.5-6.6 3.1-6.6 3.1 0.8-0.3 2.4-0.9 3.7-1.4-3 1.2-9.1 4-13.8 5.8q-1.1 0.6-2.2 1.2c-3.6 1.9-7.5 3.8-14.7 7.4 0.1-0.1 1.7-1.1-0.6 0-3.2 2.1-6.5 4.2-16.1 9.4l0.3-0.4c0 0-3.7 2.2-7.5 4.3-0.9 0.5-1.9 1.1-2.8 1.6q0.3-0.1 0.8-0.2c5.8-3.4 17.7-7.1 24.4-10 4.4-2 2.4-1.5 0.3-0.9 2.3-0.8 4.9-1.8 7.6-3 2.7-1.1 5.5-2.3 8.1-3.5 5.3-2.4 9.8-4.5 11.5-5 6.4-2.5 2.6-0.4 4.5-0.8 9.5-4-2.1-0.7 10.9-5.2-1.5 0.6-4.2 1.8-3.1 1.4 2.5-0.9 6-1.8 9.6-2.8q1.3-0.3 2.5-0.7l0.1-0.1c0.4-0.1 0.5-0.1 0.5-0.1 2.4-0.8 4.6-1.6 6.3-2.4l-3.3 1.1c2.2-1.1 4.8-2.2 7.5-3.1q0.2-0.1 0.4-0.1c2.3-1.1 4.4-2 6.4-3.1l0.5 1.5q0.2-0.1 0.5-0.1l0.4 1.5q-0.2 0.1-0.4 0.1l0.5 1.5c-2.3 0.4-4.7 1.1-7.3 2h0.7c-2.1 0.8-3.8 1.5-5.1 2q0 0 0 0c-0.2 0.2 0.5 0 1.3-0.2 0.8-0.2 1.6-0.4 1.6-0.4 0 0.1-0.7 0.4-3.2 1.5-0.8 0.1-1.6 0.2-3 0.6q-0.7 0.2-1.5 0.5-0.6 0.3-1.1 0.5c-1.3 0.6-2.6 1.2-7.2 3.1-0.9 0.6-2.2 1.2-5.1 2.5v-0.5c-5.8 2.6-9.3 3.6-12 5.6l2.3-0.9c-1.5 0.6-2.7 1.2-3.8 1.7 1.3-0.4 2.3-0.7 2.7-0.8q-2.2 0.7-4.2 1.4c-3.9 1.7-6 2.6-12.2 5.3-1 0.5-5 2.4-6.2 2.8-0.1 0.3-3.5 2-7.7 4 6.2-2.2 12.6-4.4 18.6-6.4 11.9-4 22.3-7.2 26.7-8.1 1.8-0.3 5.9-1.8 9.4-2.9q1.8-0.8 4-1.7l-5 1.8c1.5-0.7 5.1-2.2 8.2-3.3 3-1.2 5.6-2.1 4.9-2 2.5-0.6 5-0.8 3.2 0.1 1-0.4 3-1.4 5.1-2.2 2.4-1.1 4.9-2.1 5.6-2.4-1.4 0.6-0.1 1.2-0.8 1.5 4.6-1.4 7.8-3.2 5.1-2.7 3.5-0.7 5.5-1 7-1.1l3.2-0.4-1.7 2.6c-0.4 0.7-1.1 1.3-1.8 1.5q-0.5 0.3-1 0.3-0.2 0.1-0.4 0.1-0.2 0-0.3 0-0.2 0-0.4 0.1-0.5 0.1-1.1 0.2c-0.8 0.3-1.9 0.6-3.3 0.9-2.7 1 0.6 0.9 2.6 0.2-3 1.3-5.6 2.1-7.7 2.7-2 0.6-3.7 1.1-5.2 1.5 6.5-2.2 5.6-2.8 4.6-3.3-1.4 0.5-2.9 1.1-4.4 1.6-4.2 1.6-8.5 3.3-9.5 3.9-4 0.6-9.7 4.1-12.7 4.5-1.2 0.6-2.6 1.4-4.3 2.2 1.9-0.4 2.7-0.3-0.6 0.9-0.3 0.2-0.5 0.3-0.8 0.4l-1.6 0.2c-3.3 1.6-6.6 3.2-8.8 4.2 1-0.4 2.2-0.8 3.4-1.3-1.4 0.6-2.8 1.1-4.1 1.6-0.4 0.3-0.8 0.5-1.1 0.6q0.3-0.2 0.7-0.4c-2.1 0.9-4.2 1.8-7 3.3-3.1 1.3-6.3 2.8-9.6 4.5 4.5-1.5 8.4-2.6 10.5-2.9 2.3-1.2 13.5-4.1 19-5.7l1.6-0.1c7.2-1.8 11.7-3.1 16.1-4.2 5.2-1 10.2-1.6 14.5-3.4l0.3 0.9q0.1 0 0.2 0l0.7 2.2q-0.1 0.1-0.2 0.1l0.3 0.9c-4.5 1.1-8.8 2.7-13.1 4.3-4.3 1.5-8.4 3.3-12.5 4.8l-0.1-0.1-12.5 5c3.2-1.5-2.4 1.2-6.2 2.5-2 0.9-4.6 1.9-7.3 2.9-2.7 1.1-5.5 2.2-7.9 3.1l-7.9 3.2c8.7-3.9-0.8-0.2-1.5-0.4l-4.9 2.4c-2.1 0.7 3.1-1.7-0.7-0.2-1.3 0.7-3.8 1.8-6.6 3-2.7 1.1-5.5 2.3-7.2 3.4l-0.3-0.6c2.2-1.3 4.6-2.4 6.8-3.4-2.9 1.1-1.2 0.3 0.7-0.6 1.9-0.9 3.9-1.9 1.8-1.3 0 0-1.1 0.5-2.2 1-1.2 0.5-2.3 0.9-2.3 0.9-1.5 0.5 0.3-0.4 2.3-1.4q-0.1 0.1-0.3 0.2 0.2-0.1 0.3-0.2c0.8-0.3 1.6-0.7 2.3-1.1q0.9-0.3 1.9-0.7c-4.6 1.4-8.6 2.9-12.3 4.3l-0.3-0.7q1.4-0.5 2.2-0.9c-0.4 0-1.3 0.2-2.4 0.5l-0.1-0.2c0.2-0.1 0.3-0.1 0.4-0.1 6.5-2.1 4.1-1.5 3.8-1.6 7.2-1.7 11.1-3.4 16.5-4.5-2.1 0.4 1.2-0.7 5-2 3.8-1.5 7.7-3.2 11.5-4.7 9-3.5 16.9-6.4 19.5-7.2-3 1-8.3 3.2-10.8 4.3l6.8-2.3c-2.7 1-5.2 1.8-8 2.8-2.9 0.9-6 2-9.9 3.8q0.1 0 0.2 0c3.9-0.9 2.7-1 6-1.5q-3.4 1-6.6 2.2c-0.7 0.6-1.3 1.2 2.5 0q1.5-0.6 2.7-1 1.3-0.5 2.3-0.9c1.5-0.5 2.7-1 3.8-1.4 2.2-0.9 3.8-1.7 5.6-2.5 3.4-1.7 7.3-3.5 16.6-7 1.7-0.7-3.7 2.1 6.2-1.8 3-1.3 5.9-2.4 8.4-3.4-1.2 0.1-4 0.6-4.7 0.7-6.2 1.4-11.1 2.6-16.1 3.8-5 1.3-10.1 2.6-16.7 4.6-0.7 0.1-2.2 0.3-1.9 0.1-6.3 2.1-15 6.2-12.5 5.8-7.4 2.5-8 2.3-14.2 4.7 10.3-2.9-2 0.5-2.8 1.6-6.4 2.4-2.4 0.5-5.4 1.4-1 0.5-3.5 1.6-3.6 1.9-3.7 0.9 5.3-3.3 3.3-3.1-3 1.5-6 2.9-9 4.2 1.9-0.9 4.6-2.2 5.2-2.7-5 2.6-10.1 5.1-14.8 7.4 0.9 0.1 1.9 0 3.2-0.3-0.3 0.6-6.1 2-8.7 3.3q-0.3 0-0.5 0.1-1.8 1-3.3 1.9l-1.9-3.2c1.2-0.8 2.3-1.4 3.3-2l-0.7-0.1c2.3-1.2 4.5-2.2 6.5-3.1 1.5-0.9 3.2-1.8 5-2.7l-3 1.8q1-0.4 1.9-0.8c3.2-1.7 7.4-4.1 8.3-4.7 0.2 0.1-1.5 1.4-2.1 2.1q2-0.8 4.1-1.6l0.2-0.6q1.6-0.6 3.5-1.3c8.4-4.7 14.8-8.7 14-8.9 0 0-4.4 2.3-8.8 4.7-4.3 2.4-8.7 4.8-8.7 4.8-0.9-0.2 12.4-6.9 11.4-7.1 0 0 4.1-2 8.2-4 4.2-1.9 8.3-3.9 8.3-3.9-2.1 1-8.4 4.3-5.7 3.3 7-3.4 3.7-1.7 8.5-3.7-5 2.9-12.6 7.7-18.7 11.6 2.3-0.8 4.7-1.7 7-2.5 8.8-5.2 15.9-10.4 18.2-12 6.5-2.9 4.7-0.8 3.3 0.2 3.7-1.7 6.2-3 8.2-4.2-7.6 2.5-16.1 5.2-21.9 7.1l1.9-0.6c2.4-1.1-8.3 2.2-12.5 4 0.7-0.4 1.7-0.7 3.6-1.4-8.4 2.2-10.2 4.9-18.7 7.2 7.5-2.6 8.9-3.5 8.4-3.7-6.1 2.5-20.4 7.5-17.1 7.4-4 1.2-7.5 2.7-7.4 2.1 0 0-3.4 1.4-6.9 2.9-1.6 1.1-4.4 2.6-9 4.9 1.6-0.9 4.1-2.2 3-1.8-1.2 0.3-3.6 1.7-4.4 2.1-1.1 0.4 2.3-1.4 1-1.1-2.2 1.3-4.2 2.3-6.2 3.3l-2-4.2c3.2-1.7 6.7-3.1 11.1-4.9l10.1-4.6 0.5-0.5 2.7-0.5c1.7-1 2.7-1.7 3.1-1.8 0.3-0.1 0 0.2-0.7 0.6 1.5-0.7 2.7-1.4 3.4-1.8 0.7 0.1-1.5 1.6-3.9 3.2 1.5-0.4 2.6-0.8 3-1q-0.9 0.3-1.8 0.6 0.7-0.4 1.4-0.8-0.2 0-0.4 0 0.4-0.1 0.9-0.3c5.2-2.9 10-5.7 7.1-4.8-1.2 0.5-3.5 1.5-5.7 2.5-2.1 0.9-4.2 1.8-5.5 2.3 1.5-0.7 1.5-0.8-0.6 0l-8.6 4c2.6-1.3-0.2-0.3-4.1 1.2-5.6 2.3-7.8 3.5-9.5 4.8-0.8 0.6-1.6 1.1-2.8 1.7q-0.3 0.2-0.8 0.4 0 0.1-0.1 0.1l-0.2 0.2q-0.2 0.1-0.3 0.2c-0.9 0.7-2.1 1.3-3.6 1.6 0.8-0.2 1.3-0.5 1.8-0.7 0.4-0.2 0.9-0.5 1.6-1-1.3 0.9-2.9 1.5-4.4 1.7l-2.2-4.1 1-0.8c0-0.2 0.5-0.9 1.5-1.8zm30.2-7c0 0 0.4-0.2 1.1-0.5q-0.4 0.2-1.1 0.5zm13.2-5.6h-0.1q0.5-0.2 1.1-0.5l-3.3 1.4q0.9-0.4 1.4-0.6c0.6-0.2 0.9-0.3 0.9-0.3zm1-0.5l4.9-2.1q1.2-0.6 2.1-1.2l-0.8 0.4c-0.9 0.2 4.2-1.9 0.7-0.6-1.7 0.8-4.9 2.4-6.9 3.5zm13.5-6.3c3.1-0.9-2.9 2-8 4 3.7-0.8 5.2-1.5 7.7-2.7 2.4-1.2 5.9-2.8 13.5-5.4l-6.9 2.9c3.9-0.9 8.2-2.7 14-4.8q0.7-0.3 1.5-0.6c-4.5 1.3-11.8 3.6-5.7 0.8 2.3-0.8 5.3-1.9 9.6-3.9 0.2 0.4 4.4-1.4 9.7-3.5l-0.1 0.2q0.7-0.3 1.5-0.6l-0.2 0.1q2.2-0.8 3.8-1.5c1-0.5 1.6-0.9 3.2-1.7 2.2-0.8 3.8-1.5 5.1-1.9 0.9-0.4 2.2-1 4.8-2 0.3-0.2 1.4-0.9 4.2-2q0.1 0 0.2 0l-0.4-0.1c0.5-0.7 3.4-1.7 7.2-3.4l-0.5-1.5c-2.2 0.3-4.6 0.8-6.9 1.6q-0.5 0.2-1.1 0.5c-2.7 1.2-5.6 2.6-9 4.2-5 2-0.9 0-0.8-0.2q-0.3 0.1-0.6 0.2l-4.9 2.7c-1.3 0.5-0.9 0.2-0.7 0-4.3 2.1-0.1 0.8-7 3.9-1.5 1.5-14.5 5.3-22.8 9.8-2.1 0.7 0.9-0.8 0.2-0.8-5.8 2.8-8.3 4-10.5 5.2-1.8 0.9-3.4 1.8-6.6 3.5zm-19.1 11l-10.4 5.5c-1.3 0.5-0.3-0.2 1.3-1.3-0.7 0.4-1.4 0.8-1.9 1.1-3.9 1.6-2.1 0.3 0.5-1.3q2-0.8 3.9-1.5 0.1 0 0.1-0.1c-3.3 1.1-8 2.6-8.3 3.3-1.4 0.2-4.4 1.2-1-0.4-2.2 0.9-4.1 1.7-5.9 2.5l-3.8 1.7c-2.4 1.3-4.6 2.6-6.9 3.9l1.3 2.8c6.1-3.6 12.8-7 22.4-10.9 3.2-1.4 5.4-2.6 8.1-4.4 2-0.6 5.2-1.9-1.3 1.4 1.8-0.9 7.5-3.6 12.8-6q1.2-0.6 2.4-1.2c-5.9 2.1-11.6 4.1-16.7 5.8q-0.2 0.2-0.5 0.3c0.5 0 0.6 0 0.4 0.2 1.4-0.6 2.6-1 3.5-1.4zm-8.7 5.3c-1.1 0.5-2.3 1-3.8 1.6-0.1 0.4-0.4 0.9-1.3 1.7 3.7-1.6 6.9-2.9 9.3-3.4 0-0.7-3.3 0.2 0.5-1.8q-2.4 1-4.7 1.9zm-16.6 8.4c4.3-1.9 3.5-1.2 2.4-0.6 0 0 3.6-1.7 7.3-3.3q0.2-0.1 0.5-0.2 0.8-0.6 1.3-1c-3.5 1.5-7.5 3.3-11.5 5.1zm82.5-29.7c8-2.6 14.8-4.8 15.6-5.4 0.2 0-1.3 1.4-2 1.8 0 0 5.3-2.3 10.7-4.6 5.4-2.2 10.7-4.6 10.7-4.6-0.6 0.5 0 0.7 0.6 0.9 1.8-0.6 3.4-1.2 4.2-1.7 3-0.8 6-1.4 8.8-1.9l-1.4-2c-0.2 0.4-0.4 0.6-1.2 0.7l-0.4-0.1q-0.5 0-1 0.1h-0.7c0 0-1.9 1-4 1.9-2 0.9-4 1.7-4 1.7-5.3 1.2-7.5 1.6-2.5-0.3-12.2 4.3-10 3.2-20.4 6.9l0.4-0.5q-1.2 0.3-2.6 0.8c-3.9 1.7-6.2 3.1-8.5 4.5-1.3 0.7-2.5 1.5-4 2.3q0.8-0.3 1.7-0.5zm40.8-17.2q0.2 0 0.3 0-0.1 0-0.3 0zm-3.8 1.1q0 0-0.2 0.1 0.1 0 0.2-0.1zm-11.5 5q0.4-0.1 0.6-0.3c-0.4 0.2-0.6 0.3-0.6 0.3zm-61.4 30.1l-2.2 0.8-8.3 4.6c1.7-1.3 4.6-3.2 7.9-5.4-3 1.1-5.9 2.2-8.4 3.2-2.3 1.2-4.7 2.5-7.1 3.7-1.2 0.5-1.2 0.3-0.8-0.2q-2.8 1.1-5.6 2.4-0.3 0.1-0.5 0.2c-1.8 1-3.2 1.7-3.6 1.9l1.6-1.1q-0.9 0.4-2 0.9c-2.8 1.7-5.4 3.4-8.9 5.3l1.7 2.9q1.5-0.9 3.3-1.7 2.9-1.4 6.1-3.1c-2.3-0.1-2.7-1.4-0.7-2.8 0.5-0.1 4.3-1.4 8.2-2.8 4.1-1.4 8.4-2.8 10.1-3.2q0.6-0.1 0.9-0.1c6.6-3.4 13.1-7.1 19.4-10.2-2 0.6-4.1 1.3-6.3 2.1q-0.2 0.1-0.4 0.1-2.1 1.3-4.4 2.5zm66.3-15.7c0.9-0.2 1.8-0.5 2.9-0.9 1.1-0.4 2.5-0.8 4.3-1.6q0.1 0 0.2 0v-0.1c-2.1 0.9-4.2 1.5-5.7 2q-0.1-0.2 0.4-0.4-1 0.3-2 0.7c0.6 0 0.8 0-0.1 0.3zm7.4-2.5l0.1 0.3q0.1 0 0.2-0.1l-0.6-2q-0.2 0-0.3 0l0.1 0.3q0.1 0 0.2 0l0.5 1.4q-0.1 0-0.2 0.1zm-2.8 1.8c0.1-0.2 1.3-0.6 2.9-1.4v-0.1c-2.4 1-6.3 2-2.9 1.5zm-9.4 0.4c1.3 0 6.6-2.1 11.8-3.5l-0.1-0.2c-2.3 0.4-1.6 0.2-0.1-0.3v-0.1c-3.4 1-8.3 2.7-11.6 4.1zm11.8-3.5l0.1 0.3c-1.7 0.9-3.1 1.5-4 1.9q-0.7 0.3-1 0.6 2.9-1.1 5.2-1.9l0.1 0.3q0.1-0.1 0.1-0.1l-0.3-1.2q-0.1 0-0.2 0.1zm0.2 0.2l0.2 0.6q-0.1 0-0.1 0.1l-0.2-0.6q0 0 0.1-0.1zm-88.2 35.8l-1-2.4q0 0 0 0l1.1 2.3q-0.1 0-0.1 0.1zm13.3-7.3h1.8c-0.7 0.1-5.4 1.5-7.8 2.4q0 0 0 0c3.7-1.4 13.4-3.5 17-5.5l-6.2 1.6c4.4-1.7 9.4-3.8 14.8-5.7 0.4-0.3 0.8-0.6 0.6-0.7q-0.6 0.1-1.4 0.3c2.6-0.4-3.1 1.5-7.9 3q-2.4 1-4.8 2 0 0-0.1 0 0 0 0.1 0c-2.8 1.1-5.5 2.2-7.9 3.2q0.9-0.3 1.8-0.6zm1.8 0q0.1 0 0.1 0zm4.3-2.6q0 0 0 0 0.4-0.1 0.8-0.1-0.5 0-0.8 0.1zm-18.8 10.9c0.2-0.2 0.5-0.3 0.9-0.4 0.3-0.2 0.3-0.2 0.1-0.1 0.1 0 0.2-0.1 0.3-0.1-0.2 0.1-0.2 0.1-0.4 0.2-0.3 0.1-0.6 0.4-0.8 0.5zm-0.1 0.1l-0.1-0.5q0 0 0 0l0.2 0.4q-0.1 0.1-0.1 0.1zm-1.9-4.5q0 0 0 0l0.2 0.4q0 0 0 0zm0.2 0.4l0.2 0.7q0 0 0 0l-0.3-0.7q0 0 0.1 0zm1.2 3q0 0 0.1 0l0.2 0.7q0 0 0 0zm91-49.4c0.1 0.1 1.1-0.1-0.6 0.4q0.4-0.2 0.6-0.4zm-0.6 0.4q0 0 0 0-0.1 0-0.1 0 0 0 0.1 0zm-109.7 28.1c-2.6 1.1-6.7 3-10.6 4.8-2 0.8-3.8 1.7-5.4 2.5-1.6 0.7-2.8 1.5-3.5 1.9-0.8 0.1-1.9 0.5-3.4 1.1q-0.3 0.1-0.6 0.3c-0.3 0.1-0.5 0.3-0.7 0.5q-0.5 0.3-0.9 0.5-1 0.6-2.3 0.9l1.6 3c3.6-3.3 9.3-6.2 13.8-8.8 4.4-2.8 7.6-4.6 7.9-4.1 0 0 2-1.2 4.6-2.7-0.3 0.1-0.5 0.1-0.5 0.1zm22.2-17.4l1.1-0.4c0.6-0.6-0.7-0.1-2.8 0.8-1.3 0.8 0.3 0.1 1.4-0.2q0.2-0.1 0.3-0.2zm-33 15.2q-4.2 2-8.5 4.1l-2.1 1.1-1.1 0.5c-0.2 0.1-0.4 0.3-0.7 0.4l-0.4 0.3q-1.7 1.1-3.6 1.4l1.4 3.2c3.1-2.4 6.7-4.4 10.3-6.5 3.6-2.2 7-4.3 10.4-6.5q3.9-2.4 7.8-4.7-6.8 3.4-13.5 6.7zm-4.9-6.9q-0.2 0.1-0.6 0.2 0.3-0.1 0.6-0.2zm-7.7 4c-4.8 2.3-9.2 4.4-4.9 2.9-6.1 2.7-0.6-0.3-5.3 1.6-2.3 1.1-4.8 2.3-7.4 3.2l1.4 3.2c3.2-1.5 6.4-3.4 9.7-5.3 3.2-1.9 6.6-3.7 10-5.6 6.1-3.3 12.5-6.7 19-10.2-4.5 1.9-11 5-14.8 6.2 1.3-0.3-3.4 1.9-7.7 4zm72.8-38.6c2-0.4 4.1-0.8 6.4-1.3 1.2-0.3 2.5-0.6 3.8-1.1q1.7-0.8 3.3-1.9v-0.1c-0.6 0.3-0.7 0.2-0.2-0.2l-1.3-2.2q0 0.1-0.2 0.2c-1.4 0.7-3.9 1.9-7.3 3.2-1.6 0.6-3.5 1.3-5.4 2.2-1.8 0.9-3.7 1.9-5.6 2.8q0 0 0 0c2.1-0.6 4.2-1.1 6.5-1.6zm11.2-6.8c-1.9 1.2-3.3 1.7-4.3 2.1-1.1 0.4-1.8 0.7-2.9 1.1-1.9 1.1-0.4 0.5 1.9-0.4 1.1-0.5 2.4-1.1 3.5-1.7 1.1-0.5 2-1 2.5-1.3l-0.1-0.1q-0.3 0.2-0.7 0.4 0.1-0.1 0.1-0.1zm0.7-0.2l0.1 0.2q0 0 0 0l-0.1-0.2q0 0 0 0zm1.5 2.4q0 0-0.1 0l0.2 0.2q0 0 0 0zm0 0l-1.3-2.2q0 0 0 0l1.3 2.2q0 0 0 0zm-65.5 28.8l0.4-0.2q-0.3 0.2-0.4 0.2zm10.8 3.2c-3.7 2 7.4-2.9 2.5-0.3 9.4-4.7 9.7-4.9 11.2-5.9-2.4 1.3-5.1 2.7-8.2 4.2 0.8-0.6 3.8-2.5 6-3.7-3.3 1.4-6 3.2-9.3 4.8 0.3-0.6 3.7-2.5 7.9-4.7 4.3-2.2 9.3-4.6 12.7-6.6-3.6 1.3-13 7-9.9 4.5-2.3 1.8-5.4 3.3-8.9 5.1-2.4 1.3-5.1 2.7-7.7 4.3q1.8-0.9 3.7-1.7zm13.7-6.2c2.4-1.2 4.4-2.3 6.4-3.4l-0.9 0.3c-3.4 1.9-4.6 2.6-5.5 3.1zm7.9-3.8c3.2-1.8 3.4-2.2 11-5.5-6.1 2.9 5.1-1.6-1.7 1.8 8-3 13.9-5.5 18.8-7.3q0.7-0.3 1.3-0.5c1.2-0.6 2.4-1.1 3.4-1.5-2.2 0.7-3.5 1.1-2.1 0.6-1.7 0.4-0.6-0.2 1.6-1 2.1-0.9 5.3-2 7.9-3.2l-0.5-1.2q-0.8 0.3-1.5 0.5c-2.6 0.9-5 1.4-8.3 2.4-3.2 1-7.3 2.6-13.4 5.6 0.9-0.5 1.1-0.6 2.2-1.2-4.9 2.1-9.1 4.8-15.1 7.2-3 2.1-7.5 3.6-8.1 4.8l11.5-5.8c-2.8 1.5-5.5 3-8.5 4.7zm16.4-9.3q-0.1 0.1-0.4 0.2 0.2-0.1 0.4-0.2zm-41.8 21.1c-2.2 1-4.2 2-5.9 3l-3.5 2.8c2.3-1.5 4.9-3.3 6.1-4.1l-0.3 0.7q1.8-1.3 3.6-2.4zm-5.5 2.6q-0.4 0.3-0.7 0.5 0.1-0.1 0.3-0.1zm-14.7 17.2q0.7-0.3 1.2-0.6-0.6 0.3-1.2 0.6zm67-32.8c-1.4 0.8-2.6 1.4-3.7 2.1 2.4-1 4-2 5.5-2.9q-1 0.5-1.8 0.8zm-6.5 3c-0.3 0.4-1.9 1.2-2.3 1.5q0.8-0.2 1.7-0.6c1-0.6 2.2-1.2 3.4-1.8q-1.2 0.4-2.8 0.9zm-25.3 45.4q0 0-0.1 0l-1-2.3q0 0 0-0.1zm2.6-38c-3.1 1.5-2.2 1.3 0.1 0.4 1.2-0.8 0.7-0.7-0.1-0.4zm25.8 2c-2 0.9-5.8 2.7-7.3 3 2-1.4 3.9-1.8 7.3-3zm-55.4 24.9c1.4-0.8 3.6-1.8 6.2-2.9q-2.7 1.4-6.2 2.9zm62.4-2.6q-0.1 0-0.2 0.1c3.1-1.2 4.6-1.8 0.2-0.1zm-9.4 3.7c-0.9 0.4-0.8 0.5-0.4 0.4 0.6-0.4 2.7-1.3 5-2.2-0.7 0.2-1.9 0.6-4.6 1.8zm1.9-42.8l1.8-0.7c1-0.7 2.1-1.3-1.8 0.7z"/>
			<path id="&lt;Path&gt;" class="s0" d="m58.3 53.4c0.5-0.2 0.7-0.2 0.9-0.2 0.7-0.4 0.7-0.5-0.9 0.2z"/>
			<path id="&lt;Path&gt;" class="s0" d="m157.2 16.4l0.3-0.2q0.2-0.1 0.2-0.2z"/>
			<path id="&lt;Path&gt;" class="s0" d="m125.3 63.4c-2 0.7-3 1-3.8 1.2 0 0.1 0.9-0.1 3.8-1.2z"/>
			<path id="&lt;Path&gt;" class="s0" d="m139.9 60.9l-6 2.1c2.9-0.9 4-1.2 5.5-1.6-0.2-0.1-1.4 0.2 0.5-0.5z"/>
			<path id="&lt;Path&gt;" class="s0" d="m193.2 47.4c0.9-0.4 1.9-0.7 2.7-1l-0.3-0.2c-3.7 1.3-6.3 2.4-2.4 1.2z"/>
			<path id="&lt;Path&gt;" class="s0" d="m146 60.6c0.6 0.3 4.3-1.1 8.5-2.6q-0.4 0.1-0.8 0.3c1.1-1-3.3 0.7-7.7 2.3z"/>
			<path id="&lt;Path&gt;" class="s0" d="m155.5 57.7c1.3-0.5 2.6-0.9 3.9-1.3 0.4-0.4-1.6 0.5-3.9 1.3z"/>
			<path id="&lt;Path&gt;" class="s0" d="m133 67.4c-1.9 0.7-1 1-2.1 1.3-2 1.4 12.6-6 2.1-1.3z"/>
			<path id="&lt;Path&gt;" class="s0" d="m149.8 60.8h-1.7l-2.2 1.2z"/>
			<path id="&lt;Path&gt;" class="s0" d="m119.1 71.1q-0.6 0.2-1.2 0.5l-0.2-0.6 5.5-1.7c-0.1-0.1 0.7-0.4 1.7-0.8-2.7 0.9-5.7 1.9-7.3 2.4l0.4 0.8c0.7-0.4 1.2-0.6 1.1-0.6z"/>
			<path id="&lt;Path&gt;" class="s0" d="m124.9 68.5c2.2-0.7 4.3-1.4 5.4-1.8-1.1 0.4-3.6 1.2-5.4 1.8z"/>
			<path id="&lt;Path&gt;" class="s0" d="m140.6 63.9l-2 0.6-4.7 1.5z"/>
			<path id="&lt;Path&gt;" class="s0" d="m189.8 42.9c0 0 0.5-0.1 1.1-0.4 0.7-0.2 1.6-0.6 2.5-0.9 1.8-0.7 3.6-1.4 3.6-1.4 0.7-0.4-1.3 0.2-4 1.2-1.7 0.7-4.4 1.8-3.2 1.5z"/>
			<path id="&lt;Path&gt;" class="s0" d="m167.5 49.9c2-0.6 2.1-0.6 3.3-0.8v-0.7z"/>
			<path id="&lt;Path&gt;" class="s0" d="m188.5 41.8c0.7-0.5 10.4-4.2 1.2-0.9-0.7 0.4-7.9 3.3-1.2 0.9z"/>
			<path id="&lt;Path&gt;" class="s0" d="m63.5 67.1l1.9-0.7-0.7-0.8z"/>
			<path id="&lt;Path&gt;" class="s0" d="m169.6 34.1c-8.5 3.5-1.8 1.4-9.4 4.6-1.9 1.2 6.2-2.6 4.3-1.5 5-2.5 7.7-3.6 5.1-3.1z"/>
			<path id="&lt;Path&gt;" class="s0" d="m164.5 37.2q-1.2 0.6-2.5 1.3c1.4-0.7 2.1-1 2.5-1.3z"/>
			<path id="&lt;Path&gt;" class="s0" d="m14.5 29.8l-5.6 1.9 3.7-1z"/>
			<path id="&lt;Path&gt;" class="s0" d="m4.2 34.7c0 0-0.4-0.1-0.8-0.1-0.4 0-0.8 0-0.8 0 0 0-0.7 0.5-1.2 0.8q-0.4 0.2-0.6 0.2c-0.2 0.1-0.3 0.1-0.3 0.1q0.1 0 0.3 0 0.1 0 0.3 0c0.3 0 0.6-0.1 1-0.3 0.7-0.2 1.5-0.6 2.1-0.7z"/>
			<path id="&lt;Path&gt;" class="s0" d="m162.5 31.4l0.4-0.3c-0.9 0.2-2.2 0.7-4.8 1.7z"/>
			<path id="&lt;Path&gt;" class="s0" d="m38.6 62.3l1.2-0.5-2.6 0.5z"/>
			<path id="&lt;Path&gt;" class="s0" d="m63.6 38.1c-2.4 1.3-5.2 3-7.6 4.3 5.2-3 8.7-4 7.6-4.3z"/>
		</g>
	</g>
</svg>