<svg version="1.2" xmlns="http://www.w3.org/2000/svg" viewBox="0 0 800 800" width="800" height="800">
	<title>Vector Smart Object-ai</title>
	<style>
		.s0 { fill: #454691 } 
	</style>
	<g id="Objects">
		<g id="&lt;Group&gt;">
			<path id="&lt;Path&gt;" class="s0" d="m782.4 517c-0.9-0.2-1.3-0.4-1.6-0.4-0.3-0.1-0.3 0-0.4 0q0 0.1 0 0.2 0 0 0 0.1c0 0 0 0 0-0.1q0-0.1 0-0.2v0.3h0.1q0.1 0 0.2 0.1 0.4 0.1 0.7 0.1 0.6 0.2 1.1 0.2c0.7 0.1 1 0 0.9 0 0-0.1-0.3-0.2-0.6-0.2-0.2-0.1-0.4-0.1-0.4-0.1z"/>
			<path id="&lt;Path&gt;" class="s0" d="m738.6 509l0.9-0.1h-7.1z"/>
			<path id="&lt;Path&gt;" class="s0" d="m694 506.3c4.2 1 16.2 0.8 24.1 1.6l1.3 0.2 3.6-0.4c-9.6-0.4-22.2-0.8-29-1.4z"/>
			<path id="&lt;Path&gt;" class="s0" d="m670.3 503.4c1.4 0.3-5.2-0.1 5.5 0.4-0.5-0.1-0.7-0.1-1-0.2-0.9 0-2.3-0.1-4.5-0.2z"/>
			<path id="&lt;Path&gt;" class="s0" d="m674.8 503.6c4.7 0.3-3-0.4 0 0z"/>
			<path id="&lt;Path&gt;" class="s0" d="m653.1 502.4l6.2 0.2c-1.2-0.3-6.8-0.7-4.7-0.7-6.4-0.3-5.1-0.1-1.5 0.5z"/>
			<path id="&lt;Path&gt;" class="s0" d="m647.2 502.5l3.2 0.1c-0.5-0.1-1.4-0.2-3.2-0.1z"/>
			<path id="&lt;Path&gt;" class="s0" d="m657.3 502.9l-6.9-0.3c0.9 0.2 1 0.4 3.2 0.1-0.6 0.2 0.8 0.1 3.7 0.2z"/>
			<path id="&lt;Path&gt;" class="s0" d="m661.1 503.3c3.5 0.4 7.9 0.7 1.7 0.6 5.9 0.3 8.5 0.3 8 0.1-0.4-0.1-3.8-0.4-9.7-0.7z"/>
			<path id="&lt;Path&gt;" class="s0" d="m691.7 506.9l4.6 0.5h4c-2 0-8.9-0.7-8.6-0.5z"/>
			<path id="&lt;Path&gt;" class="s0" d="m614.5 499.7c-0.4 0.1 2 0.4 2.5 0.7h4.6c-2.4-0.2-6.8-0.5-7.1-0.7z"/>
			<path id="&lt;Path&gt;" class="s0" d="m617 500.4h-6.9c6.1 0.2 7.3 0.2 6.9 0z"/>
			<path id="&lt;Path&gt;" class="s0" d="m646.1 503.2l11.2 0.2-13.4-0.4z"/>
			<path id="&lt;Path&gt;" class="s0" d="m588.2 499.3l3.8-0.3-6.9 0.5z"/>
			<path id="&lt;Path&gt;" class="s0" d="m570.8 499.4c2.8-0.3-4-0.5-1-0.6-4.7 0-8.7 0.3-12.3 0.5 3.8-0.1 7.9-0.1 13.3 0.1z"/>
			<path id="&lt;Path&gt;" class="s0" d="m551.4 499.7c1.9-0.1 3.9-0.2 6.1-0.4q-3.1 0.1-6.1 0.4z"/>
			<path id="&lt;Path&gt;" class="s0" d="m598.4 500.1c-0.6-0.1-1.6-0.3-5.4-0.4l2.7 0.4c0.8 0 1.7 0 2.7 0z"/>
			<path id="&lt;Path&gt;" class="s0" d="m595.8 500.1h-0.1c-3 0-5 0-5.9 0 0.8 0 2.6 0 6 0z"/>
			<path id="&lt;Path&gt;" class="s0" d="m599 500.1c-0.2 0-0.4 0-0.6 0 0.2 0.1 0.4 0.1 0.6 0z"/>
			<path id="&lt;Path&gt;" class="s0" d="m628.1 501.6c-4 0-12.4-0.1-4.3 0.6 2.9-0.1-1.8-0.6 4.3-0.6z"/>
			<path id="&lt;Path&gt;" class="s0" d="m602.4 500.7c0 0 1.8 0 3.7 0.1 1.8 0.1 3.6 0.1 3.6 0.1-0.1-0.1-1.4-0.3 0.6-0.3 0 0-2 0-4 0-1.9 0-3.9 0.1-3.9 0.1z"/>
			<path id="&lt;Path&gt;" class="s0" d="m598.8 500.8c0 0 0.9 0 1.8-0.1 0.9 0 1.8 0 1.8 0l-2.7-0.1z"/>
			<path id="&lt;Path&gt;" class="s0" d="m563.9 500c-3.2 0.2-6.6 0.2-10.5 0.3 4.1 0.1 8.5 0.1 12.6 0.1 0.5-0.2 2.3-0.4-2.1-0.4z"/>
			<path id="&lt;Path&gt;" class="s0" d="m579.4 500.1c-0.3 0-0.5 0-0.7 0 0.4 0.1 0.7 0.1 0.7 0z"/>
			<path id="&lt;Path&gt;" class="s0" d="m515.1 500.6q0.3 0.1 0.6 0.1 0.1 0 0.2-0.1z"/>
			<path id="&lt;Path&gt;" class="s0" d="m566.7 500.5c3.1 0 5-0.1 6.7-0.2q-3.5 0.1-7.4 0.1c-0.3 0-0.4 0.1 0.7 0.1z"/>
			<path id="&lt;Path&gt;" class="s0" d="m540.7 499.9c1.6 0.1 3.5 0.1 5.4 0.2-1.6-0.1-4.9-0.3-5.4-0.2z"/>
			<path id="&lt;Path&gt;" class="s0" d="m577.6 500q0.2 0 0.5 0c-1.1-0.1-0.9 0-0.5 0z"/>
			<path id="&lt;Path&gt;" class="s0" d="m577.6 500c-1.6 0.1-2.9 0.2-4.2 0.3 2 0 3.7-0.1 5.3-0.2-0.4 0-0.8 0-1.1-0.1z"/>
			<path id="&lt;Path&gt;" class="s0" d="m503.5 503.4c0.6-0.4 8.8-0.7 15.9-0.4 7-0.4 2.4-1.6-3.7-2.3-0.2 0.2-0.2 0.4-7.4 0.6 2.5 0.2 16 0.4 9.9 0.8-9.5 0.3-7.8-0.1-12.4-0.3 1.9 0.3-1.1 0.5-4.4 0.6-3.2 0.2-6.7 0.4-5.7 0.8l8.4-0.2c0.1 0.1-2.9 0.3-0.6 0.4z"/>
			<path id="&lt;Path&gt;" class="s0" d="m529.4 500.6l3-0.1c-3.4 0-5.8-0.1-10.3-0.4-4.9 0.3-5.9 0.4-6.2 0.5l14.5-0.1z"/>
			<path id="&lt;Path&gt;" class="s0" d="m545.7 500.4c-2.3 0.4-9.4 0.6-5.1 1 8.7 0 6.1-0.3 11.3-0.5-14 0.1 4-0.3-6.1-0.5 2.7-0.1 5.2-0.1 7.6-0.1q-3.8-0.1-7.3-0.2 0.2 0 0.3 0h0.1c0.6 0.1 0.8 0.1 0.1 0.1 0 0-0.2 0-0.3 0-0.1 0.1-0.3 0.1-0.6 0.2-4.1-0.1-0.7-0.2 0.6-0.2 0.1 0 0.2 0 0.2-0.1q0 0-0.1 0c0 0-3.5 0.1-7 0.2-3.5 0.1-7 0.2-7 0.2 2.9 0 6.7-0.1 13.3-0.1z"/>
			<path id="&lt;Path&gt;" class="s0" d="m616.2 502.8c-0.4 0-0.4-0.1-0.4-0.1-0.9 0-1.3 0 0.4 0.1z"/>
			<path id="&lt;Path&gt;" class="s0" d="m610.5 502.4c1-0.1 1.8-0.2 5.2 0 2.8 0.2-0.1 0.2 0.1 0.3 2 0 7 0 0.7-0.5h-1c-5.6-0.3-12.9-1-11.9-1 1.6 0.4 3.1 0.7 6.9 1.2z"/>
			<path id="&lt;Path&gt;" class="s0" d="m577.7 501.4l-11.7 0.2 5.9 0.4-0.3-0.3c6.7 0.1 5.2-0.2 6.1-0.3z"/>
			<path id="&lt;Path&gt;" class="s0" d="m513.8 500.4l1.5-0.4-6.7 0.6z"/>
			<path id="&lt;Path&gt;" class="s0" d="m498.6 500.5l0.6-0.4-4 0.2z"/>
			<path id="&lt;Path&gt;" class="s0" d="m598.6 530.7l3.5 0.3c-1.6-0.2-2.7-0.3-3.5-0.3z"/>
			<path id="&lt;Path&gt;" class="s0" d="m573.9 527.5l-0.6 0.1c1.1 0.1 1.6 0 0.6-0.1z"/>
			<path id="&lt;Path&gt;" class="s0" d="m735.6 542.1c4.7 1.6 10.1 3.4 9.6 2.9l-1.4-0.8c-3.4-0.8-6-1.4-8.2-2.1z"/>
			<path id="&lt;Path&gt;" class="s0" d="m563.4 524q0.7 0.1 1.4 0.2 1.9-0.1 3.4-0.1c-1.4-0.1-3.1-0.1-4.8-0.1z"/>
			<path id="&lt;Path&gt;" class="s0" d="m559.7 525.6l-6.5-0.7c1.4 0.2 3.5 0.4 6.5 0.7z"/>
			<path id="&lt;Path&gt;" class="s0" d="m665.7 553.6l-4 0.1c6.2 0.5 3.5 0 4-0.1z"/>
			<path id="&lt;Path&gt;" class="s0" d="m521.2 508.7c4.3 0.5 7.7 0.8 10.7 1.1-5.2-0.7-9.3-1.4-10.7-1.1z"/>
			<path id="&lt;Path&gt;" class="s0" d="m588.4 534c2 0.2 3 0.2 2.9 0.1-2.2-0.2-3.4-0.3-2.9-0.1z"/>
			<path id="&lt;Path&gt;" class="s0" d="m544.3 510.9q-1.1-0.1-2.3-0.3c-3.1-0.2-6.3-0.4-10.1-0.8 3.8 0.5 8.2 1 12.4 1.1z"/>
			<path id="&lt;Path&gt;" class="s0" d="m494.6 558.7c-0.4 0-0.8 0-1.1 0-0.1 0.1 0.4 0.1 1.1 0z"/>
			<path id="&lt;Path&gt;" class="s0" d="m516.7 565.4c1.4-0.2 3.7-0.5 5.8-0.8-1 0.1-2.8 0.3-5.8 0.8z"/>
			<path id="&lt;Path&gt;" class="s0" d="m437.4 498.6c3.3 0 0.5 0 0 0z"/>
			<path id="&lt;Path&gt;" class="s0" d="m453.1 500.7c-0.7 0-1.2 0-1.3 0.1q0.4-0.1 1.3-0.1z"/>
			<path id="&lt;Path&gt;" class="s0" d="m576.5 511.4q0.2 0 0.3 0c-0.9-0.1-0.8-0.1-0.3 0z"/>
			<path id="&lt;Path&gt;" class="s0" d="m442.3 498.9q-1.8-0.1-4.1-0.2c0.6 0 1.9 0.1 4.1 0.2z"/>
			<path id="&lt;Path&gt;" class="s0" d="m441.6 498.7c1.2 0 2 0 2.9 0.1 0.4-0.1 0-0.2-2.9-0.1z"/>
			<path id="&lt;Path&gt;" class="s0" d="m432.9 498.6c1.9 0 3.6 0.1 5.3 0.1-0.7 0-0.9-0.1-0.8-0.1-0.9 0-2.3 0-4.5 0z"/>
			<path id="&lt;Path&gt;" class="s0" d="m488.8 543.5q0.3 0 0.7 0c3.2 0 1.8 0-0.7 0z"/>
			<path id="&lt;Path&gt;" class="s0" d="m733.7 546.6c0.1 0 0.2 0 0.3 0-0.1 0-0.3 0-0.5 0z"/>
			<path id="&lt;Path&gt;" class="s0" d="m722.1 545.4c5 0.2 7.7 0.6 11.4 1.2l-3.6-1.7z"/>
			<path id="&lt;Compound Path&gt;" fill-rule="evenodd" class="s0" d="m398.1 319c10.3 2.9 20.3 4 26.1 4.8 3.9 1-3.4 0.3 8.1 2.5 8.1 1.7 7.3 1.3 5.9 0.7-1.6-0.6-3.8-1.4 0.9-0.3 0 0 1.8 0.6 3.5 1.1 1.7 0.6 3.5 1.4 3.5 1.4q2.2 0.6 4.2 1.7l6.3 3.2-7 1.8c-1.1 0.2-2 0.2-2.8 0.2q-1.2-0.1-2.2-0.3l-0.8-0.1h-0.4l-0.5-0.1q-0.9 0-1.8-0.1-3.6-0.3-7.1-0.6c-4.6-0.4-9.1-0.9-13.8-1.3-2.3-0.1-3.5-0.1-4.1-0.1-11.3-1.1-23.7-0.9-32.2-1.7 2 0-4.8-0.7-5.8-0.9l-2.9-0.1 1.8 1.6-3.2 0.5c-0.9 0.2-1.1 0.1 0-0.2-2.8 0.6-5.2 0.5-7.4 0.6-1.1 0.1-2.2 0.2-3.2 0.3q-1.6 0.2-3 0.3l0.7-0.1c-9.2 0.5-12.9 0.5-16.4 0.7-3.6 0.1-6.9 0.4-15.2 1.3h1.7c-5.5 0.7-11.3 1.1-17.4 1.3-6.1 0.2-12.3 0.2-18.5 0.2q-6.1 0-12.2 0 0.8 0.1 1.7 0.2 2.7 0.4 5.4 0.7c1.8 0.3 3.6 0.5 5.5 0.7 3.7 0.4 7.7 0.8 12.1 2.5l4.1 1.5-4.1 1.5c-1.3 0.4-2.6 0.5-3.9 0.6q-0.5 0.1-1 0.1-0.5 0.1-1 0.1-1 0.1-2.1 0.2l0.9-0.2c-8 0.6-12.2 1-15.7 1.8-1.7-0.1 4-0.8 0.9-0.7-6.9 1.3-13.8 2-20.1 2.5-6.3 0.6-11.9 1.1-16 2.2 0.4-0.6-3.9-0.3-7.4-0.1-3.5 0.1-6.2 0.2-2.5-0.8 0 0-1.4 0.3-2.8 0.5-0.7 0.2-1.5 0.4-2 0.5-0.5 0.1-0.9 0.2-0.9 0.2q0.3-0.2 1.3-0.5c0.6-0.2 1.4-0.3 2.3-0.5 1.8-0.4 4.1-0.8 6.4-1.2 4.6-0.8 9.4-1.6 11-2.2 0 0 4.5-0.5 9.1-0.9 4.5-0.4 9-0.8 9-0.8-0.6-0.2 2.3-0.9-0.6-0.6 4.5-0.6 8.4-1 2.5-0.7 5.3-0.4 10.6-0.9 16-1.2q2.9-0.2 5.9-0.4-0.1 0-0.2 0l-5.2-0.6-5.2-0.6c-6.9-0.8-13.8-1.3-20.7-1.7-6.4-0.3-12.9-0.6-19.3-0.7q-0.9 0-1.7 0 0.3 0 0.7-0.1-0.2 0-0.4 0-2.4 0-4.7-0.1l-0.9 0.3-2.2-0.1c-4.2 0.4-3.6 0.4-2.9 0.5 0.6 0.1 1.2 0.2-3 0.5-1.1-0.2-3.6-0.1-6.9-0.3v-0.2q0 0 0 0l0.1-3.3q0 0 0 0v-0.2c2.5 0.2 5.6-0.4 9.3-0.5 2.2-0.1 4.4-0.1 6.7-0.1 1.4-0.2 0-0.2-0.9-0.3 7.9-0.1 7.5-0.9 11.8-1.2 0 0 2.9 0.1 5.8 0.2 2.9 0.2 5.8 0.3 5.8 0.3 4.6-0.4 1-0.6 1.3-0.8 10.9-0.3 21.7-0.2 31.9 0 10.2 0.1 19.8 0.2 28.5-0.7 5.6-0.1-1.2 0.8 6.1 0.4-5-0.1 0.3-0.6 6.1-1.2 2.5-0.2 5.1-0.4 7-0.6-4.6-0.4-14.4-0.9-24.5-1.5-12.2-0.8-24.8-1.4-29.3-2.1 6.2 0.9-0.5 0.3-6.5 0.4l5.4 0.8-13.5-0.5c-1.4 0-2.3 0-2.8 0-0.6 0-0.8-0.1-0.8-0.1-2.2-0.1 0.6-0.3-5.2-0.6-9.2-0.4-9.7-0.1-14.8 0l1.4 0.1-6.2-0.2c-4.6-0.2 16.3 0.2 1.3-0.8-0.3 0.2-9.1 0.5-13.1-0.1 7.6 0.4 6.7 0 3.9-0.4 0 0-2.7-0.1-5.4-0.3-2.7-0.2-5.4-0.3-5.4-0.3l3.5 0.9q-2.3-0.1-4.7-0.3-2.3-0.1-4.7-0.2c-1.6-0.1-3.2-0.2-4.8-0.4-0.4 0-0.8 0-1.3-0.1q-0.2 0-0.3-0.1-1.5 0.1-3 0.2l-0.3-5.1q0.5 0 0.9-0.1-0.4 0.1-0.8 0.1l0.2 5q1.1-0.1 2.2-0.2-0.1 0-0.2 0-0.7-0.2-1.2-0.2-0.4 0-0.8 0l-0.2-4.1c0.9-0.2 1.7-0.1 2.3 0q0.1 0 0.2 0c2.3 0 4.6-0.1 7-0.3 3.1-0.1 6.3-0.2 9.5-0.3 6.3 0 12.7 0.2 19.1 0.5 12.8 0.8 25.7 1.6 38.8 2.2-0.5 0.7 23.2 1.1 20.2 1.9l-1.2-0.1c-8.1-0.3 2.3 0.8 8.8 1-6.8-0.6 12.4-0.5-4.3-1.3h12.9c3.6-0.7 12.2-0.5 22.4 0 10.2 0.6 21.9 1.5 31.7 1.7-1.4 0-1.8 0.1-2 0.2 17.5 0.4 38.9 2.9 43 3l1.5 0.6c4 0.1 7.1 0.2 9.8 0.3-2.9-0.6-6.7-1.3-12.1-2.4l0.5-0.1c0 0-4.6-0.8-9.3-1.7-4.7-0.9-9.3-1.9-9.3-1.9 0.2-0.7-7.8-2.3-16.5-3.8-8.7-1.6-18.2-2.9-20.8-4.2-1 0-2.5-0.1-4.4-0.3-2-0.2-4.2-0.4-6.6-0.6-4.6-0.5-9.6-1-12.7-1.3 0-0.1-0.4-0.2-1.4-0.4-3.7 0-8.9-0.8-14.2-1.6-5.3-0.9-10.7-1.6-14.7-2-5.3-0.3-3 0.2-0.8 0.7-10.3-1.7-28.7-2.2-32.4-2.9-7.6-0.8-2.8-0.8-4.8-1.4-11.3-1 1.7 1.6-13.3-0.6 1.7 0.1 5 0.4 3.7 0.2-5.7-0.7-15.9-3.5-21.7-3.7l3.8 0.6c-2.7-0.2-5.7-0.5-8.6-0.8-0.4 0.1-1 0.2-2.8 0.2 0.2-0.1 0.7-0.2-0.8-0.3l-6.3 0.5c-2.5-0.2 5.8-0.3-1.3-0.6-3.3 0.1-6.2 0.2-8.9 0.3v-0.9q0 0 0 0v-2.6q0 0 0 0v-0.9c7.4-0.1 13.2 0.1 20.6 0.9 14.4 1.2-6.1-1.6 6.1-0.4 1.1 0.4 2.1 0.8 4.5 1.2 3.3 0.2 5.8 0.3 8.2 0l-2.8-0.2c10 0.3 10.9 0.5 21.1 1 1.2 0 6.1 0.2 7.5 0.4 0.5-0.6 23.7 1 28.2 1.3-8-0.4-4.2 0.1-1.9 0.5 4.7-0.2 8 0 14.6 0.8 1-0.7 2.4-1.5 15.4-0.5-2.1-0.1-5.2-0.3-4 0 1.4 0.3 4.4 0.3 5.4 0.3 1.3 0.3-2.9 0.1-1.5 0.5 8.9 0 15.2 1.2 27.9 2.3-4-0.2-0.6 0.3 0.8 0.8 1.1-0.9 17.3 2.8 12.6 1 24.7 3.7 62.7 8.9 72.2 11.1 2.6 0.7 9.5 1.2 13.8 1.8l-0.6 0.3c6 0.5 8.4 0.8 11 1 2.6 0.3 5.5 0.6 12.6 1.1-5.9-0.2-3.5 0.3 2.4 1.3 0 0 2 0.1 4.2 0.1q-0.2-0.1-0.4-0.1c-0.3-0.1-0.6-0.1-0.9-0.2l-1.6-0.9c-3.9-0.8-7.9-1.8-10.6-2.4 1.2 0.3 2.6 0.8 4 1.2-1.7-0.5-3.2-1-4.7-1.4-0.5-0.1-1.1-0.3-1.4-0.4q0.4 0.1 0.8 0.2c-2.3-0.7-4.8-1.4-8.2-2.1-13.5-4.1-30.7-6.4-45.6-10.6 2.2 0.6 5.4 1.3 6.3 1.3-12.6-2.7-25.2-5.7-33.4-6.6l0.5 0.6c-9.4-1.3-16.7-2.2-24.3-3.2l-0.5 0.4c-11-1.6-34.9-3.5-41.6-5.3-2.7 0.1-15.3-1.7-21.6-2.2l-1.6-0.6c-8.2-0.9-13.3-1.2-18.3-1.6-16.6-2.3-32.2-2.7-46.8-3.8l-0.1-0.1-14.9-0.8c3.9-0.1-2.9 0.1-7.4-0.3-4.7-0.1-12.4-0.6-17.9-1.1 0 0-2.4-0.1-4.8-0.2-2.3-0.1-4.7-0.2-4.7-0.2 10.5 0.1-0.7-0.6-1.3-1l-6.1 0.2c-2.4-0.2 3.9-0.3-0.5-0.4-1.2 0-3.1 0.1-5.3 0.1v-1.2c0.6-0.1 1.1-0.1 1.2-0.2q-0.7 0.1-1.2 0.1v-0.3 0.3q0 0 0 0v-0.7q0 0 0 0v0.2-0.2q0.3 0 0.5-0.1c8.5 0.2 20.6 0.6 31.2 1.2 10.7 0.6 19.9 1.3 22.9 1.8-3.4-0.4-9.8-0.7-12.8-0.7l7.9 0.8c-6.4-0.4-11.5-1.3-21.1-1.6 1.6 0.4-5.3 0.6 1.9 1.5 18.2 1.7 15-0.1 37 1.6 2 0-4.7 0.3 7 0.9 14.8 0.7 25.6 0.8 25.6-0.1-6.2-0.3-18.6-0.7-20.4-1.5 6.2 0.2 16.9 1 17.4 0.6 6.4 1.3-11.6-0.7-3.3 0.5 4.3 0.4 6.2 0.3 8.2 0.4-2.9 0 3.9 0.8 5.2 1.1 14 1.3 22.1 2.4 37.1 4 0.8 0.2 2.4 0.6 2 0.7 7.4 0.6 17.9 0.7 15.3 0 8.6 0.9 9 1.3 16.4 2-11.7-2 2.2 0.4 3.6-0.1 7.5 0.8 2.5 0.6 6 1.2 1.2 0.1 4.2 0.2 4.5 0.1 4.5 1.1-9.1 0.2-3.8 1.5 1.9 0.4 6.8 1.3 11.4 2.1 4.5 0.9 8.8 1.7 9.4 1.8 3.6-0.1 2.9-2.6-2.3-4.1 0.6-0.3 7 1.5 10.3 2 9.4 2.2 14.5 2 22.3 3.8l-6-0.8c1.3 0.3 12.8 2.4 14.7 2.6 0.2 0.3-6.2-0.1-2.7 0.9 14 3.1 27.5 5.1 26.8 4.2 0 0-5.4-1.1-10.8-2.1-5.4-1.1-10.8-2.1-10.8-2.1-0.6-0.7 15.4 2.9 14.6 2 0 0 5 1.2 9.9 2.5 4.9 1.2 9.8 2.5 9.8 2.5-2.5-0.7-10.1-2.3-7.2-1.3 8.4 2 4.3 1.2 9.9 2.8-9.8-1.7-28-4.2-34.5-4.7l10.2 2 2.5 0.9c13.3 2.6 25.7 3.5 29.3 3.8 7.6 2.1 4.6 2.6 2.8 2.3 7.4 1.9 11.2 2.4 15 2.9 1.9 0.3 3.8 0.5 6.2 0.9 2.3 0.4 5.2 1 9 1.9l-5.7-1.6c1.9 0.4 6 1.4 9.4 2.3 3.5 0.8 6.4 1.3 5.7 1.1 1 0.3 1.9 0.6 2.6 0.9q0.2 0 0.3 0c1.3 0 2.8 0.1 4.2 0.4l-0.6 3.7c-2.2-0.2-4.4-0.5-6.2-0.8q-1.2 0-2.4 0c0.5 0 0.7-0.1 0.9-0.2-1.4-0.2-2.4-0.4-2.9-0.4q-0.7-0.3-1.5-0.6c-2.3 0.1-3.2 0.5-1.6 0.8-10.1-1.4-7.7-0.8-16.2-2.4-3.2-0.2 0.2 1.1 2.5 1.4-7.2-0.4-11.4-1.1-14.8-1.6 11.9 1 3.5-1.7 5.8-2.2 0 0-6.4 0-12.8-0.1-6.5-0.1-12.9-0.4-12.9-0.4 0.9 0 3-0.6 2.9-0.8-2.3 0.6-31.3-3.6-45.4-5.8l2.1 0.3c2.9 0.1-9.2-1.9-14.2-2.3 0.8-0.1 2 0.1 4.1 0.4-9.4-2-12.5-0.4-22-2.5 8.7 1.3 10.5 1.2 10.1 0.8-7.2-0.7-23.8-3.2-20.4-1.7-4.6-0.8-8.8-1.1-8.3-1.6 0 0-4.5-0.3-8.9-0.7-4.4-0.3-8.8-0.6-8.8-0.6 1.3 0 2.4-0.2-2.7-0.7 9.9 1 19.6 1.2 24.7 2.5 0.3-0.6-3.4-1.4 1.5-1.3-9.6-1-17.1-1.5-23.6-1.7-6.6-0.3-12.3-0.3-18.3-0.4 0 0-4.2-0.5-8.5-0.9-4.2-0.4-8.4-0.8-8.4-0.8l-0.7 0.2-2.9-0.9c-2.1 0-3.5 0.1-3.9 0-0.4-0.1 0.1-0.2 1-0.2-1.8-0.1-3.4-0.1-4.3-0.1-0.6-0.4 2.4-0.7 5.6-0.9q2.3 0.4 4.6 0.7c3.4-0.1 5.8-0.3 1.2-0.8-0.7 0-1.5 0-2.4 0 2.2-0.2 3.5-0.3 1.9-0.5l-12.9-0.5c1.4 0.2 3.6 0.5 6.2 0.9-8.2 0-17.5 0-10.2 0.9l-4.7-0.5q0.2 0.1 0.3 0.1l-7-0.6q-0.3 0-0.6 0c16.8 2.5 16.3 0.8 24.2 2.9-6.1-0.6-13.4-1-9.8-0.3l8.8 0.5c1 0.3-5.1-0.4-1.1 0.3 2.6 0 7.7 0.2 10 0.3h-0.1l14.4 1.8c-1.8-0.2-1.8-0.1 0.6 0.3l10.4 1c-3.1-0.3 0.1 0.3 4.7 1 6.7 0.9 9.4 0.9 11.8 1 2.3 0 4.3 0.1 9.4 1.3-1.5-0.3-1.8-0.3-3.3-0.5l5.3 1.2c0.7-0.6 8.5 0.8 16.3 2.5 3.8 0.8 7.7 1.6 10.7 2.1 3 0.6 5.1 0.8 5.4 0.5 7.3 2 0.5 0.5-9.2-0.9l7.8 2c-3.2-0.6-5.9-1.3-9.4-1.9zm-59.1-9.5l-1.4-0.1q0.5 0 1.4 0.1zm-48.5-5.7l1.3 0.1q0.7 0 1.5 0l5.2 0.5c-5.2-1.2-11.6-1.6-20.8-3 1.9 0.4 14.2 2.4 11.7 2.6q0.8-0.1 1.8-0.1-0.3 0-0.7-0.1zm-3.7 0.1c-2.7-0.4-6.2-0.8-11.4-1.1 0-0.5-5-0.9-11.3-1.5l0.5-0.6c-6.8-0.5-6.3-0.1-10.3-0.2-2.8-0.3-4.8-0.6-6.3-0.9-2.3-0.1-4.9-0.3-8.3-0.3l0.3-0.1c-8.6-0.4-11-0.3-12.9-0.3-1.9 0-3.4 0.1-10.3-0.1v2.6c0.7 0 1.8 0.1 3.1 0.1l-1-0.5c0.8-0.5 4.9-0.2 10 0.3 2.5 0.2 5.2 0.6 8 0.9 0.7-0.2 0.4-0.4 5.9-0.4 1.1-0.4 5.4 0 10.6 0.5 5.3 0.4 11.5 1 16.7 0.8 2.5 0.4-1.3 0.4-0.5 0.7 11.1 0.1 12.2 0.2 17.9 0.2 3.6 0.5 5.6 0.9 8.3 0.7-1.5-0.4-5.2-0.6-7.7-0.7q0.3 0 0.5 0-0.7-0.1-1.8-0.1zm226.2 25.4q-0.3 0-0.5-0.1 0.3 0.1 0.5 0.1zm6-0.8c-0.6 0.1-0.2 0.6-0.5 0.9q0.7 0.1 1.5 0.2 0.9 0 1.9 0c1.4-0.1 2.9-0.1 4.2 0.1l0.4-2.4q-2.1 0-4.2-0.2c1.8 0.1 1.3-0.3 0-0.8q-1.7-0.1-3.3-0.1c-1.5 0-2.8 0-3.7 0.1-4.4-0.5-8.8-0.9-12.8-1l-1.8-0.8c0 0-1 0-2.3 0q1.5 0.3 2.8 0.5c2.6 1.2 8.7 2 12.9 3.4 1.3-0.1 3-0.1 4.9 0.1zm-1.7 1.1q0.2 0 0.3 0-0.1 0-0.3 0zm5-2.5q-0.2 0-0.4 0 0.2 0 0.4 0zm-334.9-45.9h-5.2v0.2h0.2c0.8 0.1 1 0.2 1 0.2 2.8-0.1 6-0.2 4-0.4zm-5.2 0v0.2-0.2zm0 0.6v-0.1q0 0 0 0v0.1q0 0 0 0zm0-0.9q0 0 0 0v0.1q0 0 0 0zm0 0v-1.2c5.1-0.2 11.9-0.1 14.5-0.4-0.6-0.1-2-0.3-3.8-0.4-0.5 0-0.5 0-0.2 0-0.1 0-0.2 0-0.4 0 0.2 0 0.3 0 0.5 0 0.5 0 1.3-0.1 1.7-0.1 7.5 0.2 4.8 0 4.5-0.2 8.1 0.8 12.9 0.6 18.9 1.5-5.3-0.9 20.4 0.8 15.1-0.2 6.4 0.9 4.4 0.1 8.4 0.8-8.9-0.4-17.9-0.1-25.1 0l7.1 0.6c-4.7 0.7-15.9-0.8-20.2-0.7 2.7-0.1 8.5 0.3 9.4 0.5l-1.8-0.7c-10.1-0.5-18.3-0.2-25.5 0 4.6 0.2-0.7 0.3-3.1 0.5zm30.5 0.2q0 0-0.1 0zm-9.5-0.5q0 0 0 0 0 0 0 0zm15.7-0.4q-0.5-0.1-1-0.1 0.4 0 1 0.1zm278 44.3q0.8 0 1.5 0-1.2-0.2-2.5-0.5 0.6 0.3 1 0.5zm17.7 1.8c-0.1-0.1-1.2-0.2 0.7-0.1q-0.4 0.1-0.7 0.1zm0.7-0.1q0 0 0 0 0.1 0 0.2 0-0.1 0-0.2 0zm-19.5-1.7q-0.4 0-0.7 0c2.7 0.7 2.8 0.5 1.8 0q-0.6 0-1.1 0zm-55.1 7.2c2.7 0.8 0.7 0.4 0.4 0.5q4.5 1.1 7 2.5l0.4-3.2c-0.7 0.1-1.9-0.1-3-0.2q-0.8-0.2-1.7-0.3-0.8-0.1-1.6-0.1c-2-0.2-3.9-0.3-5.7-0.4-1.3 0-2.6-0.1-4-0.2 3.6 0.7 5.9 1.1 8.2 1.4zm-227.7-10.8l0.2 4.1q0.3 0 0.6 0c1.4 0 2.8-0.1 4.2-0.1q-1.4 0.2-2.8 0.4 0.4 0 0.8 0.1c3.2-0.1 6.2-0.3 9.2-0.3 3.9 0 7.7 0 11.7-0.1-8.5 0-9.4 0.1-9.1-0.2 0.2-0.2 1.7-0.5-1.9-0.5 5.2-0.4 8.6-0.4 11.1-0.3 2.4 0.1 4 0.3 5.6 0.5 3.3 0.5 6.7 0.9 17.7 1.5-3.7-0.2-10.5-0.9-6-0.9 4.4 0.4 10.3 0.9 13.1 1.3 15.5 0.7-2.4-0.6 4.2-0.5 5.3 0.8 7.7 0.1 14.5 0.3v0.5c17.7 1.1 4.8-0.8 20.7 0.3l-6.8 0.4 8.4 0.2-1.8 0.4c9.1 0 11.9 0.2 20.8 0.7-2-0.4 1-0.8 8.4-0.7-0.6-0.2-5.7-0.7 0.3-0.7-19.1-2-28.5-0.9-37.3-2.5-4.4 0.4-0.3 0.7 4.4 1 4.6 0.2 9.7 0.5 7.3 0.4 4.1 0.6-7.4 0.4-13.4 0-6-0.3-10.3-1.7-25.4-2.1 1.2 0 1.4 0 2.7 0-5.7-0.4-11.3 0-18.3-0.7-4 0.5-9.2-0.4-10.4 0.3 0 0 3.5 0.2 7.1 0.3 3.5 0.1 7.1 0.1 7.1 0.1-8.1 0-15.6 0.6-28.8-0.6 1-0.1 5-0.1 7.7-0.1-3.9-0.4-7.5-0.3-11.4-0.8 0.6-0.3 4.8-0.1 10.1 0.2 5.2 0.3 11.3 0.6 15.6 0.4-4.1-0.5-16.2-0.2-11.9-0.8-3.1 0.4-6.9 0.1-11.2-0.2-2.1-0.2-4.5-0.4-6.9-0.4q-1.8-0.1-3.6-0.1-1-0.1-1.9-0.1c-0.3 0-0.6 0-0.9 0l-0.9-0.1c0 0 0.2-0.1 0.4-0.2 0.2-0.1 0.4-0.2 0.4-0.2q-0.6-0.1-1.3-0.2-1.1 0.1-2.3 0zm132.9 10.4c4.3 0 8.5 0.1 12.9 0.1q3.3 0 6.8 0.2l0.8 0.1c0.3 0 0.7 0 1 0q0.9 0 1.8 0 0.9 0.1 1.7 0.2c0.6 0 1.2 0.2 1.5 0.3-0.5-0.3-1.4-0.5-1.5-0.6 0-0.1 0.1-0.2 0.5-0.2q0.3 0 0.7 0.1c0.3 0 0.7 0.1 0.9 0.3l0.3-1.1h0.9l-0.4 1.9 2.7-0.6-1.6-1.2h0.3l-0.7-0.7c-0.8-0.7-1.7-0.9-2.5-1.1-0.8-0.2-1.5-0.3-2.1-0.4-1-0.1-1.4-0.3 1-0.2-9.2-0.2-11.5-0.2-13-0.1-1.4 0.1-2.2 0.3-8.1 0.6l-2.7-0.5c-3.2 0-4.1 0.1-8.7 0-0.2 0.1-0.7 0.1 6.1 0.3-2.5 0.2-5.2 0.5-10.1-0.1-0.5 0.2-2.5 0.3-3 0.4 5.8 0.5 14.5 0.5 18.5 0.6-1.5-0.1-3.4-0.2-4.3-0.3 0 0 4 0 8 0 4.1 0 8.1 0 8.1 0 2.5 0.3 0.5 0.3-1.5 0.4 3.3 0.1 5.5 0 10.3 0.2-0.8 0.2-1 0.5-3.3 0.6q-0.9-0.1-2.1 0-0.6 0-1.1 0-0.6 0-1.2 0h1q-1.1 0.1-2.4 0.1c-5.1 0.2-11.3 0.3-15.1 0.1 1 0.1-0.3 0.2-2.5 0.4q1.4 0.2 2.1 0.2zm27.4-0.6h-0.1q0 0 0.1 0zm-4 0.4c0.5-0.2 0.4-0.4-0.3-0.5l4.2 0.1c-0.9 0.2-2.2 0.4-3.9 0.4zm-0.3-0.5l-5.2-0.1q0.1 0 0.2 0c1.4 0 2.4 0 3.2-0.1q0.4 0.1 0.8 0.1 0.6 0 1 0.1zm-22.7 0.1q-0.2 0-0.5 0 0.2 0 0.5 0zm-106.9 4.5c-5 0.4-10 0.8-15 0.6l-0.1 3.3c3.7 0.1 7.1-0.6 10.4-0.6q2.7-0.1 5.5 0l1.2-0.4c5.3-0.4 8-0.1 8.3 0.1-1.1 0-3 0.2-4.3 0.3q0.4 0.1 0.9 0.1c6.4-0.2 15.9-0.8 19.5-0.8h-7c7.6-0.4 15.8-0.5 24.1-0.6-6.9-0.8-14.5-1.5-24.7-2.1l1.9 0.6c-5.4-0.3-6.6-0.5-9.1-0.7-3.1 0.2 0.7 0.4 4.5 0.6 3.9 0.1 7.8 0.4 5 0.6-2.8-0.5-9.1-0.9-16.1-1.1q-2 0-4 0-0.4 0-1 0.1zm67.1 9.1v-3c-0.9 0.3-2.2 0.4-3.5 0.4l-4.1 0.3q-1 0.1-2 0.2c3.3 0.4 6.6 1 9.6 2.1zm-40.7-6.5h1q-0.4-0.1-1 0zm108.5-7.5q-0.2-0.2-0.4-0.4c0.2 0.2 0.4 0.3 0.5 0.3v0.1zm-36-2c0.1 0 0.1-0.1-2-0.3q-0.3 0-0.5 0c0.2 0.1-0.3 0.2-2.4 0.1 2 0.1 3.6 0.2 4.9 0.2zm-66.6-4.2q-0.3 0-0.5 0 0.2 0 0.5 0zm-11.5 1.9q0.5 0 0.9 0-0.4 0-0.9 0zm28.3-22.1q0.5 0 0.8 0-0.4 0-0.8 0zm85.7 26.8l0.1-0.4 0.6 0.4zm-86.1-26.8q-0.4 0-0.7 0-0.3 0-0.5-0.1 0.5 0.1 1.2 0.1zm35.5 1.6c3 0.4 5.7 0.7 7.5 0.6q-4.2-0.5-7.5-0.6zm-111.3-21q-0.1 0-0.2 0c3.6 0.3 5.5 0.4 0.2 0zm-11.1-0.7c-1.1 0-1 0.1-0.5 0.2 0.7-0.1 3.2-0.1 5.9 0.1-0.7-0.1-2.1-0.3-5.4-0.3zm69.7 44l2.1 0.2c1.3-0.1 2.7-0.2-2.1-0.2z"/>
			<path id="&lt;Path&gt;" class="s0" d="m560.2 525.4c-0.6-0.1-0.8-0.2-1-0.3-0.9 0-0.9 0.1 1 0.3z"/>
			<path id="&lt;Path&gt;" class="s0" d="m666.4 553.5h-0.3q-0.3 0-0.4 0.1z"/>
			<path id="&lt;Path&gt;" class="s0" d="m620 514.5c2.2 0.3 3.4 0.6 4.3 0.8 0.1-0.1-0.9-0.4-4.3-0.8z"/>
			<path id="&lt;Path&gt;" class="s0" d="m470.9 499.3l-7-0.1c3.4 0.1 4.6 0.2 6.3 0.4-0.2-0.2-1.5-0.4 0.7-0.3z"/>
			<path id="&lt;Path&gt;" class="s0" d="m531.4 502.9c1.1-0.1 2.2-0.1 3.2-0.2l-0.3-0.2c-4.3 0.1-7.4 0.3-2.9 0.4z"/>
			<path id="&lt;Path&gt;" class="s0" d="m477.3 501.1c0.5 0.5 4.9 0.5 9.8 0.6q-0.4-0.1-0.9-0.1c1.5-0.5-3.7-0.5-8.9-0.5z"/>
			<path id="&lt;Path&gt;" class="s0" d="m488.2 501.7c1.5 0 3.1 0 4.6 0.1 0.5-0.3-1.9-0.1-4.6-0.1z"/>
			<path id="&lt;Path&gt;" class="s0" d="m437.5 503.8c-2.3-0.2-1.4 0.5-2.7 0.3-2.6 0.4 15.4-0.4 2.7-0.3z"/>
			<path id="&lt;Path&gt;" class="s0" d="m481.2 502.6l-1.7-0.5-2.8 0.3z"/>
			<path id="&lt;Path&gt;" class="s0" d="m442.6 501.1l7.8 0.3c-0.1-0.1 0.9-0.2 2.1-0.2-4.8-0.1-10.1-0.3-9.9-0.1z"/>
			<path id="&lt;Path&gt;" class="s0" d="m452.5 501.2c2.5 0.1 4.9 0.2 6.3 0.1-1.4 0-4.3-0.1-6.3-0.1z"/>
			<path id="&lt;Path&gt;" class="s0" d="m470.5 502.4l-2.3-0.2-5.5-0.2z"/>
			<path id="&lt;Path&gt;" class="s0" d="m505.8 505.6l8.5 0.5c0.9-0.1-1.5-0.4-4.6-0.6-2.1 0-5.2-0.2-3.9 0.1z"/>
			<path id="&lt;Path&gt;" class="s0" d="m480.1 502.4c2.3 0.2 2.4 0.4 3.7 0.6l0.3-0.6z"/>
			<path id="&lt;Path&gt;" class="s0" d="m504.9 504c0.9-0.1 12.4 0.4 1.6-0.4-0.8 0.1-9.4-0.3-1.6 0.4z"/>
			<path id="&lt;Path&gt;" class="s0" d="m632.9 517.9l-2.2-0.3 0.2 1z"/>
			<path id="&lt;Path&gt;" class="s0" d="m744.3 538.9c-9.7-2.6-2.4 0.1-11.2-2.4-2.4-0.4 7.2 2 4.8 1.6 5.9 1.2 9 2.1 6.4 0.8z"/>
			<path id="&lt;Path&gt;" class="s0" d="m737.9 538.1q-1.5-0.2-3.1-0.6c1.7 0.4 2.5 0.5 3.1 0.6z"/>
			<path id="&lt;Path&gt;" class="s0" d="m492.9 568.4l-6.5 1 4.2-0.5z"/>
			<path id="&lt;Path&gt;" class="s0" d="m480.7 571.7c0 0-0.4-0.1-0.7-0.1-0.4-0.1-0.8-0.2-0.8-0.2q-1.1 0.4-2.2 0.6l0.6 3.7c0.6-0.3 1.2-0.7 1.6-1.2-0.4 0.4-1 0.8-1.6 1.1l-0.6-3.5c1.2 0.1 2.9-0.3 3.7-0.4z"/>
			<path id="&lt;Path&gt;" class="s0" d="m519.2 520.8l-0.5 0.1c0.9 0.2 2.5 0.4 5.5 0.7z"/>
			<path id="&lt;Path&gt;" class="s0" d="m606.9 531l-1.5-0.2 2.7 1z"/>
			<path id="&lt;Path&gt;" class="s0" d="m680 544.1c-3-0.7-6.5-1.2-9.5-1.8 6.5 1.1 10.2 2.7 9.5 1.8z"/>
		</g>
	</g>
</svg>